<svg width="1664" height="1408" viewBox="0 0 1664 1408" fill="none" xmlns="http://www.w3.org/2000/svg">
<g clip-path="url(#clip0_645_608)">
<path d="M768 832V1216C768 1269.33 749.333 1314.67 712 1352C674.667 1389.33 629.333 1408 576 1408H192C138.667 1408 93.3333 1389.33 56 1352C18.6667 1314.67 0 1269.33 0 1216V512C0 442.667 13.5 376.5 40.5 313.5C67.5 250.5 104 196 150 150C196 104 250.5 67.5 313.5 40.5C376.5 13.5 442.667 0 512 0H576C593.333 0 608.333 6.33333 621 19C633.667 31.6667 640 46.6667 640 64V192C640 209.333 633.667 224.333 621 237C608.333 249.667 593.333 256 576 256H512C441.333 256 381 281 331 331C281 381 256 441.333 256 512V544C256 570.667 265.333 593.333 284 612C302.667 630.667 325.333 640 352 640H576C629.333 640 674.667 658.667 712 696C749.333 733.333 768 778.667 768 832ZM1664 832V1216C1664 1269.33 1645.33 1314.67 1608 1352C1570.67 1389.33 1525.33 1408 1472 1408H1088C1034.67 1408 989.333 1389.33 952 1352C914.667 1314.67 896 1269.33 896 1216V512C896 442.667 909.5 376.5 936.5 313.5C963.5 250.5 1000 196 1046 150C1092 104 1146.5 67.5 1209.5 40.5C1272.5 13.5 1338.67 0 1408 0H1472C1489.33 0 1504.33 6.33333 1517 19C1529.67 31.6667 1536 46.6667 1536 64V192C1536 209.333 1529.67 224.333 1517 237C1504.33 249.667 1489.33 256 1472 256H1408C1337.33 256 1277 281 1227 331C1177 381 1152 441.333 1152 512V544C1152 570.667 1161.33 593.333 1180 612C1198.67 630.667 1221.33 640 1248 640H1472C1525.33 640 1570.67 658.667 1608 696C1645.33 733.333 1664 778.667 1664 832Z" fill="white"/>
</g>
<defs>
<clipPath id="clip0_645_608">
<rect width="1664" height="1408" fill="white"/>
</clipPath>
</defs>
</svg>
