<svg width="1465" height="743" viewBox="0 0 1465 743" fill="none" xmlns="http://www.w3.org/2000/svg">
<g filter="url(#filter0_d_30_3)">
<path d="M283.742 324L276.955 266.913H157.592V216.214H247.813L241.026 159.128H157.592V109.626H271.765L264.979 52.5393H84.9366V324H283.742ZM461.251 242.163L497.978 192.661V324H570.634V52.5393H522.33L447.279 155.934L365.442 52.5393H315.541V324H388.197V192.661L432.109 246.155L461.251 242.163ZM729.051 324C743.688 324 757.793 322.669 771.366 320.008C785.206 317.347 797.581 312.955 808.493 306.834C819.404 300.713 828.054 292.463 834.441 282.083C840.828 271.438 844.022 258.397 844.022 242.961C844.022 229.92 840.562 218.077 833.643 207.432C826.989 196.52 818.34 187.338 807.694 179.886C813.815 173.765 819.537 166.712 824.86 158.728C830.183 150.744 832.844 141.429 832.844 130.784C832.844 112.154 827.655 97.1174 817.275 85.6735C806.896 74.2296 793.19 65.8462 776.157 60.5235C759.39 55.2007 741.027 52.5393 721.066 52.5393H626.454V324H729.051ZM718.671 109.626C726.921 109.626 733.841 110.557 739.43 112.42C745.285 114.283 749.809 117.078 753.003 120.804C756.197 124.264 757.793 128.788 757.793 134.377C757.793 139.167 755.797 143.159 751.805 146.353C747.813 149.28 742.624 151.543 736.236 153.139C729.849 154.736 722.929 155.535 715.477 155.535H699.11V109.626H718.671ZM729.849 212.621C742.091 212.621 751.672 215.15 758.592 220.206C765.511 225.263 768.971 232.315 768.971 241.364C768.971 246.953 767.241 251.744 763.782 255.736C760.588 259.462 756.064 262.256 750.208 264.119C744.62 265.982 738.099 266.913 730.647 266.913H699.11V212.621H729.849ZM1074.58 324L1067.79 266.913H948.427V216.214H1038.65L1031.86 159.128H948.427V109.626H1062.6L1055.81 52.5393H875.772V324H1074.58ZM1227.73 324C1253.28 324 1275.77 318.411 1295.2 307.233C1314.63 296.056 1329.8 280.22 1340.71 259.728C1351.89 239.235 1357.48 214.883 1357.48 186.673C1357.48 160.857 1352.55 137.97 1342.71 118.009C1333.13 97.7828 1318.75 81.8145 1299.59 70.1044C1280.7 58.3944 1257.28 52.5393 1229.33 52.5393H1106.38V324H1227.73ZM1225.74 109.626C1237.98 109.626 1248.23 112.953 1256.48 119.606C1264.99 126.26 1271.38 135.441 1275.64 147.151C1280.16 158.595 1282.43 171.769 1282.43 186.673C1282.43 204.504 1279.76 219.408 1274.44 231.384C1269.12 243.36 1261.93 252.276 1252.88 258.131C1244.1 263.986 1234.12 266.913 1222.94 266.913H1179.03V109.626H1225.74ZM289.33 405.539H56.9921V462.626H136.833V677H209.489V462.626H296.117L289.33 405.539ZM444.279 682.589C415.536 682.589 390.652 676.335 369.627 663.826C348.602 651.318 332.368 634.418 320.924 613.127C309.746 591.836 304.157 568.283 304.157 542.467C304.157 514.523 310.145 489.905 322.122 468.614C334.098 447.057 350.598 430.29 371.623 418.314C392.914 406.072 417.133 399.95 444.279 399.95C473.82 399.95 498.97 406.205 519.729 418.713C540.754 431.222 556.855 447.988 568.033 469.013C579.211 490.038 584.8 513.591 584.8 539.673C584.8 567.617 578.812 592.368 566.835 613.925C555.125 635.482 538.625 652.382 517.334 664.625C496.309 676.601 471.957 682.589 444.279 682.589ZM443.88 621.909C456.388 621.909 467.566 618.849 477.413 612.728C487.526 606.607 495.51 597.425 501.365 585.182C507.22 572.94 510.148 557.77 510.148 539.673C510.148 524.503 507.487 511.063 502.164 499.353C497.107 487.377 489.655 477.929 479.808 471.009C470.227 464.09 458.65 460.63 445.077 460.63C433.101 460.63 422.056 464.09 411.943 471.009C401.83 477.663 393.713 487.111 387.591 499.353C381.736 511.329 378.809 525.568 378.809 542.068C378.809 557.238 381.337 570.944 386.394 583.186C391.717 595.163 399.168 604.61 408.749 611.53C418.597 618.45 430.307 621.909 443.88 621.909ZM741.966 677C767.515 677 790.003 671.411 809.432 660.233C828.86 649.056 844.029 633.22 854.941 612.728C866.119 592.235 871.708 567.883 871.708 539.673C871.708 513.857 866.784 490.97 856.937 471.009C847.356 450.783 832.985 434.815 813.823 423.104C794.927 411.394 771.507 405.539 743.562 405.539H620.607V677H741.966ZM739.97 462.626C752.212 462.626 762.458 465.953 770.708 472.606C779.225 479.26 785.612 488.441 789.87 500.151C794.395 511.595 796.657 524.769 796.657 539.673C796.657 557.504 793.996 572.408 788.673 584.384C783.35 596.36 776.164 605.276 767.116 611.131C758.333 616.986 748.353 619.913 737.175 619.913H693.262V462.626H739.97ZM1043.87 566.42H990.774L1016.72 492.566L1043.87 566.42ZM981.593 405.539L879.795 677H952.051L970.814 623.506H1064.63L1084.19 680.992L1155.65 673.806L1054.25 405.539H981.593ZM1314.51 677V570.811L1408.72 405.539H1334.07L1277.78 503.345L1225.08 399.95L1155.62 419.112L1241.85 570.013V677H1314.51Z" fill="#E7CEF8"/>
</g>
<defs>
<filter id="filter0_d_30_3" x="0.992188" y="0.539307" width="1463.73" height="742.05" filterUnits="userSpaceOnUse" color-interpolation-filters="sRGB">
<feFlood flood-opacity="0" result="BackgroundImageFix"/>
<feColorMatrix in="SourceAlpha" type="matrix" values="0 0 0 0 0 0 0 0 0 0 0 0 0 0 0 0 0 0 127 0" result="hardAlpha"/>
<feOffset dy="4"/>
<feGaussianBlur stdDeviation="28"/>
<feComposite in2="hardAlpha" operator="out"/>
<feColorMatrix type="matrix" values="0 0 0 0 0 0 0 0 0 0 0 0 0 0 0 0 0 0 0.1 0"/>
<feBlend mode="normal" in2="BackgroundImageFix" result="effect1_dropShadow_30_3"/>
<feBlend mode="normal" in="SourceGraphic" in2="effect1_dropShadow_30_3" result="shape"/>
</filter>
</defs>
</svg>
